<svg width="1390" height="1377" viewBox="0 0 1390 1377" fill="none" xmlns="http://www.w3.org/2000/svg">
<path d="M1419.45 797.97C1419.45 797.97 1221.79 924.524 1029.54 781.356C837.294 638.187 823.796 569.982 590.176 665.457C356.556 760.932 368.905 393.114 234.239 193.638C99.5736 -5.8372 -195.628 -69.5388 -400.06 67.8911C-604.492 205.321 -763.798 442.882 -1096.79 116.546" stroke="#866AFA" stroke-width="1.74" stroke-miterlimit="10"/>
<path d="M1419.57 788.456C1412.38 791.918 1215.99 918.494 1023.14 774.625C830.29 630.755 814.872 562.46 583.705 658.003C352.479 753.579 358.642 404.425 225.742 203.691C93.2678 4.29239 -194.167 -60.4697 -399.27 74.3397C-604.473 209.174 -761.198 439.301 -1090.73 111.976" stroke="#967DFD" stroke-width="1.74" stroke-miterlimit="10"/>
<path d="M1419.68 778.953C1405.32 785.889 1210.2 912.475 1016.75 767.916C823.304 623.357 805.96 554.961 577.246 650.573C348.43 746.255 348.401 415.753 217.258 213.766C86.9648 14.4503 -192.691 -51.3945 -398.473 80.7997C-604.463 213.032 -758.591 435.732 -1084.65 107.418" stroke="url(#paint0_linear_80_1116)" stroke-width="1.74" stroke-miterlimit="10"/>
<path d="M1419.8 769.44C1398.24 779.837 1204.4 906.445 1010.35 761.185C816.3 615.925 797.043 547.45 570.781 643.131C344.369 738.908 338.592 426.757 208.767 223.83C81.1042 24.2778 -191.224 -42.3138 -397.667 87.2546C-604.428 216.891 -755.975 432.158 -1078.57 102.855" stroke="#866AFA" stroke-width="1.74" stroke-miterlimit="10"/>
<path d="M1419.92 759.937C1391.18 773.808 1198.6 900.414 1003.96 754.465C809.308 608.515 788.125 539.94 564.316 635.689C340.298 731.566 328.486 437.982 200.286 233.888C74.9356 34.3325 -189.747 -33.2388 -396.861 93.7091C-604.392 220.75 -753.36 428.583 -1072.48 98.2856" stroke="url(#paint1_linear_80_1116)" stroke-width="1.74" stroke-miterlimit="10"/>
<path d="M1420.03 750.424C1384.11 767.756 1192.81 894.384 997.562 747.745C802.317 601.106 779.207 532.43 557.861 628.242C336.253 724.226 318.376 449.225 191.805 243.946C68.767 44.3873 -188.27 -24.1636 -396.054 100.164C-604.363 224.598 -750.744 425.008 -1066.4 93.7221" stroke="url(#paint2_linear_80_1116)" stroke-width="1.74" stroke-miterlimit="10"/>
<path d="M1420.14 740.91C1377.04 761.716 1187.01 888.354 991.161 741.014C795.313 593.674 770.283 524.908 551.39 620.788C332.176 716.873 308.24 460.466 183.308 253.998C62.5691 54.4578 -186.81 -15.0948 -395.27 106.601C-604.359 228.444 -748.15 421.416 -1060.34 89.1409" stroke="url(#paint3_linear_80_1116)" stroke-width="1.74" stroke-miterlimit="10"/>
<path d="M1420.26 731.407C1369.97 755.676 1181.22 882.335 984.773 734.306C788.328 586.276 761.372 517.409 544.931 613.358C328.121 709.538 298.107 471.735 174.823 264.073C56.3739 64.5567 -185.336 -6.00301 -394.467 113.072C-604.327 232.32 -745.537 417.858 -1054.26 84.5941" stroke="url(#paint4_linear_80_1116)" stroke-width="1.74" stroke-miterlimit="10"/>
<path d="M1420.37 721.894C1362.9 749.635 1175.42 876.305 978.372 727.574C781.324 578.844 752.448 509.887 538.46 605.904C324.06 702.191 287.967 482.993 166.32 274.113C50.1503 74.6261 -183.872 3.04863 -393.673 119.503C-604.31 236.144 -742.934 414.26 -1048.18 80.002" stroke="url(#paint5_linear_80_1116)" stroke-width="1.74" stroke-miterlimit="10"/>
<path d="M1420.49 712.392C1355.83 743.595 1169.62 870.275 971.978 720.855C774.332 571.435 743.531 502.376 531.996 598.462C319.99 694.849 277.814 494.273 157.84 284.171C43.9391 84.7185 -182.395 12.1233 -392.866 125.958C-604.284 240.008 -740.318 410.685 -1042.1 75.4383" stroke="url(#paint6_linear_80_1116)" stroke-width="1.74" stroke-miterlimit="10"/>
<path d="M1420.61 702.878C1348.76 737.543 1163.83 864.244 965.584 714.135C767.341 564.026 734.613 494.866 525.531 591.02C315.929 687.502 267.652 505.558 149.349 294.234C37.7145 94.833 -180.934 21.1916 -392.076 132.405C-604.271 243.849 -737.708 407.099 -1036.03 70.8685" stroke="url(#paint7_linear_80_1116)" stroke-width="1.74" stroke-miterlimit="10"/>
<path d="M1420.73 693.375C1341.7 731.514 1158.03 858.23 959.189 707.415C760.343 556.605 725.696 487.355 519.066 583.578C311.864 680.173 257.489 516.843 140.858 304.297C31.4801 104.953 -179.468 30.2716 -391.28 138.865C-604.245 247.713 -735.102 403.53 -1029.96 66.3102" stroke="url(#paint8_linear_80_1116)" stroke-width="1.74" stroke-miterlimit="10"/>
<path d="M1420.84 683.862C1334.62 725.462 1152.23 852.2 952.795 700.695C753.352 549.196 716.778 479.845 512.602 576.137C307.803 672.826 247.308 528.138 132.368 314.359C25.2262 115.083 -178.001 39.3514 -390.483 145.324C-604.219 251.577 -732.496 399.96 -1023.87 61.7465" stroke="url(#paint9_linear_80_1116)" stroke-width="1.74" stroke-miterlimit="10"/>
<path d="M1420.96 674.36C1327.56 719.433 1146.43 846.17 946.391 693.981C746.345 541.78 707.851 472.34 506.127 568.7C303.723 665.49 237.112 539.456 123.868 324.427C18.9626 125.219 -176.533 48.4309 -389.686 151.784C-604.209 255.434 -729.889 396.39 -1017.8 57.1881" stroke="url(#paint10_linear_80_1116)" stroke-width="1.74" stroke-miterlimit="10"/>
<path d="M1421.07 664.846C1320.49 713.381 1140.63 840.139 939.99 687.249C739.347 534.359 698.928 464.818 499.657 561.246C299.662 658.143 226.904 550.75 115.371 334.478C12.683 135.348 -175.073 57.4989 -388.902 158.22C-604.196 259.275 -727.295 392.798 -1011.74 52.6066" stroke="url(#paint11_linear_80_1116)" stroke-width="1.74" stroke-miterlimit="10"/>
<path d="M1421.18 655.332C1313.42 707.341 1134.84 834.109 933.596 680.529C732.356 526.95 690.017 457.319 493.198 553.816C295.608 650.807 216.696 562.09 106.897 344.547C6.42557 145.495 -173.59 66.5846 -388.089 164.685C-604.16 263.133 -724.673 389.234 -1005.65 48.0544" stroke="url(#paint12_linear_80_1116)" stroke-width="1.74" stroke-miterlimit="10"/>
<path d="M1421.3 645.83C1306.35 701.3 1129.05 828.09 927.202 673.81C725.358 519.529 681.099 449.809 486.743 546.369C291.547 643.461 206.485 573.401 98.416 354.604C0.142365 155.641 -172.113 75.6587 -387.283 171.139C-604.124 266.992 -722.057 385.66 -999.567 43.4739" stroke="url(#paint13_linear_80_1116)" stroke-width="1.74" stroke-miterlimit="10"/>
<path d="M1421.42 636.317C1299.3 695.255 1123.25 822.06 920.808 667.09C718.367 512.12 672.182 442.298 480.279 538.927C287.492 636.125 196.25 584.739 89.9258 364.666C-6.16024 165.797 -170.646 84.7379 -386.492 177.586C-604.114 270.849 -719.457 382.078 -993.5 38.904" stroke="url(#paint14_linear_80_1116)" stroke-width="1.74" stroke-miterlimit="10"/>
<path d="M1421.54 626.815C1292.23 689.214 1117.45 816.029 914.414 660.37C711.37 504.7 663.265 434.788 473.814 531.485C283.422 628.784 186 596.071 81.4354 374.728C-12.4728 175.959 -169.169 93.8117 -385.685 184.04C-604.085 274.695 -716.841 378.503 -987.418 34.3402" stroke="url(#paint15_linear_80_1116)" stroke-width="1.74" stroke-miterlimit="10"/>
<path d="M1421.65 617.301C1285.15 683.162 1111.65 809.998 908.013 653.638C704.372 497.279 654.342 427.266 467.344 524.031C279.355 621.425 175.74 607.408 72.9327 384.767C-18.8075 186.102 -167.721 102.856 -384.901 190.475C-604.071 278.535 -714.247 374.911 -981.358 29.7587" stroke="url(#paint16_linear_80_1116)" stroke-width="1.74" stroke-miterlimit="10"/>
<path d="M1421.77 607.799C1278.09 677.133 1105.86 803.98 901.625 646.93C697.387 489.881 645.431 419.767 460.886 516.601C275.307 614.102 165.476 618.762 64.4585 394.835C-25.1234 196.281 -166.238 111.941 -384.088 196.94C-604.039 282.41 -711.625 371.347 -975.269 25.2065" stroke="url(#paint17_linear_80_1116)" stroke-width="1.74" stroke-miterlimit="10"/>
<path d="M1421.88 598.285C1271.02 671.081 1100.07 797.949 895.225 640.199C690.384 482.449 636.507 412.245 454.415 509.148C271.23 606.749 155.181 630.104 55.9622 404.885C-31.4714 206.446 -164.777 121.009 -383.304 203.376C-604.032 286.239 -709.031 367.754 -969.199 20.6196" stroke="url(#paint18_linear_80_1116)" stroke-width="1.74" stroke-miterlimit="10"/>
<path d="M1421.98 588.777C1263.94 665.046 1094.26 791.924 888.815 633.473C683.377 475.033 627.574 404.729 447.935 501.699C267.153 599.396 144.875 641.45 47.4558 414.941C-37.8452 216.611 -163.326 130.081 -382.523 209.828C-604.022 290.096 -706.441 364.178 -963.143 16.0549" stroke="url(#paint19_linear_80_1116)" stroke-width="1.74" stroke-miterlimit="10"/>
<path d="M1422.1 579.275C1256.87 659.006 1088.46 785.893 882.427 626.765C676.392 467.636 618.664 397.23 441.477 494.269C263.095 592.077 134.573 652.825 38.9721 425.014C-44.2001 226.81 -161.852 139.171 -381.71 216.293C-603.986 293.954 -703.818 360.615 -957.054 11.5027" stroke="url(#paint20_linear_80_1116)" stroke-width="1.74" stroke-miterlimit="10"/>
<path d="M1422.22 569.761C1249.81 652.965 1082.67 779.863 876.027 620.033C669.389 460.203 609.741 389.708 435.006 486.815C259.029 584.719 124.232 664.176 30.4758 435.063C-50.5836 236.98 -160.382 148.233 -380.92 222.74C-603.976 297.81 -701.218 357.033 -950.987 6.93265" stroke="url(#paint21_linear_80_1116)" stroke-width="1.74" stroke-miterlimit="10"/>
<path d="M1422.34 560.259C1242.74 646.924 1076.87 773.843 869.639 613.325C662.404 452.806 600.83 382.209 428.548 479.385C254.974 577.383 113.904 675.55 21.9919 445.136C-56.9706 247.166 -158.908 157.323 -380.123 229.198C-603.95 301.673 -698.612 353.464 -944.905 2.36885" stroke="url(#paint22_linear_80_1116)" stroke-width="1.74" stroke-miterlimit="10"/>
<path d="M1422.45 550.746C1235.66 640.872 1071.08 767.813 863.239 606.593C655.4 445.373 591.907 374.687 422.084 471.943C250.91 570.053 103.543 686.911 13.5118 455.192C-63.3575 257.353 -157.431 166.396 -379.316 235.651C-603.92 305.519 -696.002 349.877 -938.823 -2.19506" stroke="url(#paint23_linear_80_1116)" stroke-width="1.74" stroke-miterlimit="10"/>
<path d="M1422.57 541.244C1228.6 634.843 1065.28 761.782 856.845 599.873C648.409 437.964 582.996 367.188 415.629 464.496C246.859 562.701 93.1891 698.283 5.03145 465.248C-69.7606 267.533 -155.961 175.457 -378.51 242.103C-603.884 309.376 -693.386 346.301 -932.74 -6.75895" stroke="url(#paint24_linear_80_1116)" stroke-width="1.74" stroke-miterlimit="10"/>
<path d="M1422.68 531.73C1221.53 628.791 1059.48 755.751 850.441 593.158C641.409 430.56 574.069 359.683 409.155 457.059C242.779 555.365 82.7933 709.648 -3.46829 475.314C-76.1928 277.729 -154.504 184.54 -377.713 248.561C-603.868 313.244 -690.77 342.726 -926.668 -11.3174" stroke="url(#paint25_linear_80_1116)" stroke-width="1.74" stroke-miterlimit="10"/>
<path d="M1422.79 522.217C1214.46 622.75 1053.69 749.721 844.041 586.427C634.405 423.128 565.146 352.161 402.685 449.606C238.719 548.018 72.388 721.019 -11.9642 485.363C-82.6373 287.901 -153.033 193.601 -376.928 254.996C-603.86 317.072 -688.176 339.133 -920.598 -15.9045" stroke="url(#paint26_linear_80_1116)" stroke-width="1.74" stroke-miterlimit="10"/>
<path d="M1422.91 512.715C1207.39 616.71 1047.9 743.702 837.653 579.718C627.421 415.73 556.236 344.662 396.227 442.175C234.655 540.688 61.9727 732.394 -20.4479 495.435C-89.0793 298.102 -151.56 202.691 -376.125 261.465C-603.828 320.946 -685.563 335.575 -914.519 -20.4515" stroke="url(#paint27_linear_80_1116)" stroke-width="1.74" stroke-miterlimit="10"/>
<path d="M1423.03 503.202C1200.33 610.669 1042.1 737.671 831.254 572.987C620.418 408.298 547.313 337.14 389.757 434.722C230.588 533.329 51.12 743.873 -28.9499 505.472C-95.8964 308.358 -150.105 211.745 -375.341 267.899C-603.82 324.774 -682.969 331.981 -908.458 -25.0333" stroke="url(#paint28_linear_80_1116)" stroke-width="1.74" stroke-miterlimit="10"/>
<path d="M1423.15 493.7C1193.26 604.628 1036.3 731.64 824.86 566.267C613.427 400.888 538.396 329.63 383.293 427.28C226.534 525.994 40.8736 755.186 -37.4302 515.527C-102.195 318.495 -148.628 220.817 -374.534 274.352C-603.794 328.636 -680.353 328.406 -902.376 -29.597" stroke="url(#paint29_linear_80_1116)" stroke-width="1.74" stroke-miterlimit="10"/>
<path d="M1423.26 484.186C1186.19 598.587 1030.5 725.615 818.466 559.547C606.436 393.479 529.48 322.119 376.829 419.838C222.464 518.652 30.6276 766.499 -45.9198 525.587C-108.5 328.621 -147.161 229.895 -373.734 280.792C-603.765 332.481 -677.737 324.831 -896.294 -34.1612" stroke="url(#paint30_linear_80_1116)" stroke-width="1.74" stroke-miterlimit="10"/>
<defs>
<linearGradient id="paint0_linear_80_1116" x1="-726.684" y1="859.045" x2="1052.26" y2="9.50176" gradientUnits="userSpaceOnUse">
<stop stop-color="#3E3776"/>
<stop offset="0.26" stop-color="#4C4189"/>
<stop offset="0.43" stop-color="#504393"/>
<stop offset="0.55" stop-color="#6159A6"/>
<stop offset="0.74" stop-color="#B39FD9"/>
<stop offset="1" stop-color="#8275B3"/>
</linearGradient>
<linearGradient id="paint1_linear_80_1116" x1="-717.491" y1="843.741" x2="1055.6" y2="-3.01045" gradientUnits="userSpaceOnUse">
<stop stop-color="#423B7A"/>
<stop offset="0.26" stop-color="#53488F"/>
<stop offset="0.43" stop-color="#544795"/>
<stop offset="0.55" stop-color="#6159A6"/>
<stop offset="0.74" stop-color="#AD99D5"/>
<stop offset="1" stop-color="#7E71AF"/>
</linearGradient>
<linearGradient id="paint2_linear_80_1116" x1="-712.889" y1="836.086" x2="1057.26" y2="-9.26127" gradientUnits="userSpaceOnUse">
<stop stop-color="#453E7C"/>
<stop offset="0.26" stop-color="#574B92"/>
<stop offset="0.43" stop-color="#554897"/>
<stop offset="0.55" stop-color="#6159A6"/>
<stop offset="0.74" stop-color="#A996D2"/>
<stop offset="1" stop-color="#7B6EAD"/>
</linearGradient>
<linearGradient id="paint3_linear_80_1116" x1="-708.287" y1="828.432" x2="1058.93" y2="-15.5171" gradientUnits="userSpaceOnUse">
<stop stop-color="#47407F"/>
<stop offset="0.26" stop-color="#5A4E94"/>
<stop offset="0.43" stop-color="#574A98"/>
<stop offset="0.55" stop-color="#6159A6"/>
<stop offset="0.74" stop-color="#A693D0"/>
<stop offset="1" stop-color="#796CAA"/>
</linearGradient>
<linearGradient id="paint4_linear_80_1116" x1="-703.69" y1="820.794" x2="1060.6" y2="-21.7613" gradientUnits="userSpaceOnUse">
<stop stop-color="#4A4281"/>
<stop offset="0.26" stop-color="#5E5197"/>
<stop offset="0.43" stop-color="#594C9A"/>
<stop offset="0.55" stop-color="#6159A6"/>
<stop offset="0.74" stop-color="#A390CD"/>
<stop offset="1" stop-color="#766AA8"/>
</linearGradient>
<linearGradient id="paint5_linear_80_1116" x1="-699.088" y1="813.139" x2="1062.27" y2="-28.0171" gradientUnits="userSpaceOnUse">
<stop stop-color="#4C4483"/>
<stop offset="0.26" stop-color="#61559A"/>
<stop offset="0.43" stop-color="#5B4E9B"/>
<stop offset="0.55" stop-color="#6159A6"/>
<stop offset="0.74" stop-color="#A08DCB"/>
<stop offset="1" stop-color="#7468A6"/>
</linearGradient>
<linearGradient id="paint6_linear_80_1116" x1="-694.486" y1="805.485" x2="1063.94" y2="-34.2731" gradientUnits="userSpaceOnUse">
<stop stop-color="#4E4685"/>
<stop offset="0.26" stop-color="#65589D"/>
<stop offset="0.43" stop-color="#5C4F9C"/>
<stop offset="0.55" stop-color="#6159A6"/>
<stop offset="0.74" stop-color="#9C89C9"/>
<stop offset="1" stop-color="#7266A4"/>
</linearGradient>
<linearGradient id="paint7_linear_80_1116" x1="-689.879" y1="797.842" x2="1065.62" y2="-40.5172" gradientUnits="userSpaceOnUse">
<stop stop-color="#514887"/>
<stop offset="0.26" stop-color="#685B9F"/>
<stop offset="0.43" stop-color="#5E519E"/>
<stop offset="0.55" stop-color="#6159A6"/>
<stop offset="0.74" stop-color="#9986C6"/>
<stop offset="1" stop-color="#6F64A2"/>
</linearGradient>
<linearGradient id="paint8_linear_80_1116" x1="-685.287" y1="790.192" x2="1067.28" y2="-46.7685" gradientUnits="userSpaceOnUse">
<stop stop-color="#534A89"/>
<stop offset="0.26" stop-color="#6C5EA2"/>
<stop offset="0.43" stop-color="#60539F"/>
<stop offset="0.55" stop-color="#6159A6"/>
<stop offset="0.74" stop-color="#9683C4"/>
<stop offset="1" stop-color="#6D62A0"/>
</linearGradient>
<linearGradient id="paint9_linear_80_1116" x1="-680.68" y1="782.549" x2="1068.96" y2="-53.0124" gradientUnits="userSpaceOnUse">
<stop stop-color="#554C8B"/>
<stop offset="0.26" stop-color="#7062A5"/>
<stop offset="0.43" stop-color="#6154A0"/>
<stop offset="0.55" stop-color="#6159A6"/>
<stop offset="0.74" stop-color="#9280C2"/>
<stop offset="1" stop-color="#6B609E"/>
</linearGradient>
<linearGradient id="paint10_linear_80_1116" x1="-676.078" y1="774.894" x2="1070.63" y2="-59.2684" gradientUnits="userSpaceOnUse">
<stop stop-color="#584F8D"/>
<stop offset="0.26" stop-color="#7365A7"/>
<stop offset="0.43" stop-color="#6356A2"/>
<stop offset="0.55" stop-color="#6159A6"/>
<stop offset="0.74" stop-color="#8F7DBF"/>
<stop offset="1" stop-color="#685D9C"/>
</linearGradient>
<linearGradient id="paint11_linear_80_1116" x1="-671.47" y1="767.252" x2="1072.3" y2="-65.5126" gradientUnits="userSpaceOnUse">
<stop stop-color="#5A518F"/>
<stop offset="0.26" stop-color="#7768AA"/>
<stop offset="0.43" stop-color="#6558A3"/>
<stop offset="0.55" stop-color="#6159A6"/>
<stop offset="0.74" stop-color="#8C7ABD"/>
<stop offset="1" stop-color="#665B9A"/>
</linearGradient>
<linearGradient id="paint12_linear_80_1116" x1="-666.863" y1="759.609" x2="1073.98" y2="-71.7566" gradientUnits="userSpaceOnUse">
<stop stop-color="#5C5391"/>
<stop offset="0.26" stop-color="#7A6BAD"/>
<stop offset="0.43" stop-color="#6659A4"/>
<stop offset="0.55" stop-color="#6159A6"/>
<stop offset="0.74" stop-color="#8877BB"/>
<stop offset="1" stop-color="#645998"/>
</linearGradient>
<linearGradient id="paint13_linear_80_1116" x1="-662.266" y1="751.971" x2="1075.66" y2="-78.0008" gradientUnits="userSpaceOnUse">
<stop stop-color="#5F5593"/>
<stop offset="0.26" stop-color="#7E6EB0"/>
<stop offset="0.43" stop-color="#685BA6"/>
<stop offset="0.55" stop-color="#6159A6"/>
<stop offset="0.74" stop-color="#8574B8"/>
<stop offset="1" stop-color="#615796"/>
</linearGradient>
<linearGradient id="paint14_linear_80_1116" x1="-657.664" y1="744.316" x2="1077.32" y2="-84.2519" gradientUnits="userSpaceOnUse">
<stop stop-color="#615796"/>
<stop offset="0.26" stop-color="#8172B2"/>
<stop offset="0.43" stop-color="#6A5DA7"/>
<stop offset="0.55" stop-color="#6159A6"/>
<stop offset="0.74" stop-color="#8271B6"/>
<stop offset="1" stop-color="#5F5593"/>
</linearGradient>
<linearGradient id="paint15_linear_80_1116" x1="-653.056" y1="736.674" x2="1078.99" y2="-90.4959" gradientUnits="userSpaceOnUse">
<stop stop-color="#645998"/>
<stop offset="0.26" stop-color="#8575B5"/>
<stop offset="0.43" stop-color="#6C5FA9"/>
<stop offset="0.55" stop-color="#6159A6"/>
<stop offset="0.74" stop-color="#7F6EB3"/>
<stop offset="1" stop-color="#5C5391"/>
</linearGradient>
<linearGradient id="paint16_linear_80_1116" x1="-648.449" y1="729.031" x2="1080.67" y2="-96.7402" gradientUnits="userSpaceOnUse">
<stop stop-color="#665B9A"/>
<stop offset="0.26" stop-color="#8878B8"/>
<stop offset="0.43" stop-color="#6D60AA"/>
<stop offset="0.55" stop-color="#6159A6"/>
<stop offset="0.74" stop-color="#7B6BB1"/>
<stop offset="1" stop-color="#5A518F"/>
</linearGradient>
<linearGradient id="paint17_linear_80_1116" x1="-643.842" y1="721.388" x2="1082.35" y2="-102.984" gradientUnits="userSpaceOnUse">
<stop stop-color="#685D9C"/>
<stop offset="0.26" stop-color="#8C7BBB"/>
<stop offset="0.43" stop-color="#6F62AB"/>
<stop offset="0.55" stop-color="#6159A6"/>
<stop offset="0.74" stop-color="#7868AF"/>
<stop offset="1" stop-color="#584F8D"/>
</linearGradient>
<linearGradient id="paint18_linear_80_1116" x1="-639.228" y1="713.757" x2="1084.03" y2="-109.216" gradientUnits="userSpaceOnUse">
<stop stop-color="#6B609E"/>
<stop offset="0.26" stop-color="#8F7EBD"/>
<stop offset="0.43" stop-color="#7164AD"/>
<stop offset="0.55" stop-color="#6159A6"/>
<stop offset="0.74" stop-color="#7565AC"/>
<stop offset="1" stop-color="#554C8B"/>
</linearGradient>
<linearGradient id="paint19_linear_80_1116" x1="-634.631" y1="706.119" x2="1085.7" y2="-115.461" gradientUnits="userSpaceOnUse">
<stop stop-color="#6D62A0"/>
<stop offset="0.26" stop-color="#9382C0"/>
<stop offset="0.43" stop-color="#7265AE"/>
<stop offset="0.55" stop-color="#6159A6"/>
<stop offset="0.74" stop-color="#7162AA"/>
<stop offset="1" stop-color="#534A89"/>
</linearGradient>
<linearGradient id="paint20_linear_80_1116" x1="-630.024" y1="698.476" x2="1087.38" y2="-121.705" gradientUnits="userSpaceOnUse">
<stop stop-color="#6F64A2"/>
<stop offset="0.26" stop-color="#9785C3"/>
<stop offset="0.43" stop-color="#7467AF"/>
<stop offset="0.55" stop-color="#6159A6"/>
<stop offset="0.74" stop-color="#6E5FA8"/>
<stop offset="1" stop-color="#514887"/>
</linearGradient>
<linearGradient id="paint21_linear_80_1116" x1="-625.416" y1="690.833" x2="1089.05" y2="-127.944" gradientUnits="userSpaceOnUse">
<stop stop-color="#7266A4"/>
<stop offset="0.26" stop-color="#9A88C5"/>
<stop offset="0.43" stop-color="#7669B1"/>
<stop offset="0.55" stop-color="#6159A6"/>
<stop offset="0.74" stop-color="#6B5CA5"/>
<stop offset="1" stop-color="#4E4685"/>
</linearGradient>
<linearGradient id="paint22_linear_80_1116" x1="-620.803" y1="683.202" x2="1090.73" y2="-134.177" gradientUnits="userSpaceOnUse">
<stop stop-color="#7468A6"/>
<stop offset="0.26" stop-color="#9E8BC8"/>
<stop offset="0.43" stop-color="#776AB2"/>
<stop offset="0.55" stop-color="#6159A6"/>
<stop offset="0.74" stop-color="#6758A3"/>
<stop offset="1" stop-color="#4C4483"/>
</linearGradient>
<linearGradient id="paint23_linear_80_1116" x1="-616.196" y1="675.559" x2="1092.4" y2="-140.421" gradientUnits="userSpaceOnUse">
<stop stop-color="#766AA8"/>
<stop offset="0.26" stop-color="#A18FCB"/>
<stop offset="0.43" stop-color="#796CB3"/>
<stop offset="0.55" stop-color="#6159A6"/>
<stop offset="0.74" stop-color="#6455A1"/>
<stop offset="1" stop-color="#4A4281"/>
</linearGradient>
<linearGradient id="paint24_linear_80_1116" x1="-611.583" y1="667.928" x2="1094.08" y2="-146.653" gradientUnits="userSpaceOnUse">
<stop stop-color="#796CAA"/>
<stop offset="0.26" stop-color="#A592CE"/>
<stop offset="0.43" stop-color="#7B6EB5"/>
<stop offset="0.55" stop-color="#6159A6"/>
<stop offset="0.74" stop-color="#61529E"/>
<stop offset="1" stop-color="#47407F"/>
</linearGradient>
<linearGradient id="paint25_linear_80_1116" x1="-606.975" y1="660.286" x2="1095.76" y2="-152.897" gradientUnits="userSpaceOnUse">
<stop stop-color="#7B6EAD"/>
<stop offset="0.26" stop-color="#A895D0"/>
<stop offset="0.43" stop-color="#7D70B6"/>
<stop offset="0.55" stop-color="#6159A6"/>
<stop offset="0.74" stop-color="#5E4F9C"/>
<stop offset="1" stop-color="#453E7C"/>
</linearGradient>
<linearGradient id="paint26_linear_80_1116" x1="-602.372" y1="652.659" x2="1097.44" y2="-159.13" gradientUnits="userSpaceOnUse">
<stop stop-color="#7E71AF"/>
<stop offset="0.26" stop-color="#AC98D3"/>
<stop offset="0.43" stop-color="#7E71B8"/>
<stop offset="0.55" stop-color="#6159A6"/>
<stop offset="0.74" stop-color="#5A4C99"/>
<stop offset="1" stop-color="#423B7A"/>
</linearGradient>
<linearGradient id="paint27_linear_80_1116" x1="-597.765" y1="645.016" x2="1099.11" y2="-165.369" gradientUnits="userSpaceOnUse">
<stop stop-color="#8073B1"/>
<stop offset="0.26" stop-color="#AF9BD6"/>
<stop offset="0.43" stop-color="#8073B9"/>
<stop offset="0.55" stop-color="#6159A6"/>
<stop offset="0.74" stop-color="#574997"/>
<stop offset="1" stop-color="#403978"/>
</linearGradient>
<linearGradient id="paint28_linear_80_1116" x1="-593.152" y1="637.385" x2="1100.79" y2="-171.601" gradientUnits="userSpaceOnUse">
<stop stop-color="#8275B3"/>
<stop offset="0.26" stop-color="#B39FD9"/>
<stop offset="0.43" stop-color="#8275BA"/>
<stop offset="0.55" stop-color="#6159A6"/>
<stop offset="0.74" stop-color="#544695"/>
<stop offset="1" stop-color="#3E3776"/>
</linearGradient>
<linearGradient id="paint29_linear_80_1116" x1="-588.539" y1="629.754" x2="1102.47" y2="-177.834" gradientUnits="userSpaceOnUse">
<stop stop-color="#8577B5"/>
<stop offset="0.26" stop-color="#B6A2DB"/>
<stop offset="0.43" stop-color="#8376BC"/>
<stop offset="0.55" stop-color="#6159A6"/>
<stop offset="0.74" stop-color="#504392"/>
<stop offset="1" stop-color="#3B3574"/>
</linearGradient>
<linearGradient id="paint30_linear_80_1116" x1="-583.931" y1="622.111" x2="1104.15" y2="-184.078" gradientUnits="userSpaceOnUse">
<stop stop-color="#8779B7"/>
<stop offset="0.26" stop-color="#BAA5DE"/>
<stop offset="0.55" stop-color="#6159A6"/>
<stop offset="0.74" stop-color="#4D4090"/>
<stop offset="1" stop-color="#393372"/>
</linearGradient>
</defs>
</svg>
